<?xml version="1.0"?>
    
<!--********* Copyright (c) 2024 Pareto Softare, LLC DBA Simplemaps.com ***************************************
************* Free for Commercial Use, full terms at  https://simplemaps.com/resources/svg-license ************
************* Attribution is appreciated! https://simplemaps.com *******************************************-->

<svg baseprofile="tiny" fill="#6f9c76" height="500" stroke="#ffffff" stroke-linecap="round" stroke-linejoin="round" stroke-width=".5" version="1.2" viewbox="400 30 600 500" width="600" xmlns="http://www.w3.org/2000/svg">
 <g id="features">
  <path d="M712.4 102.8l-1.2 1.1-0.6 0.9-0.4 0.4-0.3 0.2-0.3 0-0.3 0-0.4-0.1-0.4 0-0.5 0.1-0.3 0.3-0.1 0.4-0.1 1.1 0.1 0.3 0.1 0.3 0.6 0.2 0.7 0 0.2 0.2 0.2 0.3 0 0.4 0 0.5 0 0.5 0.2 0.6 0.2 0.6 0.3 0.4 0.5 0.6 0.4 0.1 0.3 0.2 0.3 0.3 0.3 2.4 0.3 0.5 0.2 0.4 0.3 0.3 0.9 0.8 0.3 0 0.3 0.1 0.4 0.6 0.7 0.3 0.3 0.1 0.3 0.2 0 0.3-0.1 0.3-0.2 0.8-0.1 0.6 0.1 0.4 0.3 0.4 0.2 0.3 0.3 0.2 0.4 0.1 0.6-0.3 0.8-0.4 0.4-0.2 0.3-0.2 0.2-0.3 0-0.3 0.2-0.4 0.3-0.2 0.3 0 0.3 0.3 0.4 0.6 0.6 1 0.2 0.6-0.1 0.5-1.5 1.4-0.4 0.2-1.4 0.6-0.4 0-0.4 0-0.3 0.1-0.2 0.1-0.2 0.3-0.1 0.3-0.1 0.4-0.1 0.5-0.3 0.4-0.3 0.2-0.3 0.1-0.3 0.4-0.1 0.6 0.2 0.6 0.3 0.6 0.4 0.2 0.2-0.1 0.2-0.1 0-0.1 0.1-0.1 0-0.2 0-1 0.1-0.1 0.3 0 0.8 1.2 0.1 0.2 0.4 0.3 0.3 0.1 0.4 0.1 0.7-0.1 0.4 0.2 0.9 0.9 0.4 0.5 0.1 0.6 0.2 2.1-0.4 0.5 0 0.5-0.2 0.4-0.7 0.8-0.1 0.7 0.4 1.3 0 0.5-0.2 0.6-0.2 0.5-1.3 1.6-0.9 1.2-0.4 0.4-0.5 0.2-0.3 0-0.3-0.1-0.4 0.1-1 0.9-1.1 0.6-0.2 0.1-0.5 0.7-0.2 0.4 0 0.5 0.1 0.7 0.2 0.5 0.3 0.4 0.3 0.3 0.1 0.4 0 0.3-0.4 0.3-0.3 0.3-0.3 0.3-0.2 0.5 0.1 1.5-0.1 0.6-0.7 1.6-0.1 0.4 0.1 1.1-0.4 1 1.8 0.1 1.8 0.4 0.4-0.1 0.1-0.1 0.1-0.2 0.2-0.1 0.4-0.3 0.8-0.2 0.5 0 0.4 0.2 0.5 0.4 0.2 0.1 2.9 0.8 0.5 1.1-0.1 0.5-0.1 0.9-0.1 0.5-0.2 0.4-0.3 0.4-0.1 0.2-0.3 0.1 2 1.7 1.3 0.9 0.7 0.7 0.1 0.5 0 0.4-0.1 0.4 0.1 0.8-0.1 0.3-0.1 0.4-0.1 0.4-0.5 0.6-0.5 1-0.6 0.5-0.6 0.8-0.1 0.4-0.2 0.7-0.2 0.1-0.8-0.3-0.6 0-0.8 0.2-0.7 0.4-0.6 0.6-1.4 1.4-0.3 0.5-0.2 0.3-0.4 1.5-0.3 0.3-0.4 0.2-0.3 0.2-0.3 0.3-1 1.5-0.5 0.5-0.2 0.5 0.1 0.3 0.3 0.3 0.3 0.2 0.3 0.1 0.8 0 0.3 0.2 0.4 0.6 0 0.2 0.1 0.2-0.7 1.7-0.2 0.4 0 0.4 0.2 0.5-0.1 0.6-0.3-0.2-1 0.7-1.4 0.6-1.3-0.6-1.2-1-1.3-0.9-0.6 0.1-0.7 0.4-0.6 0.5-0.3 0.3-0.1 0.8 0.3 1.7-0.1 0.9-0.5 0.7-0.4 0.5-1.3 0.9-2.9 1-0.7 0.1-1.5-0.1-0.6 0.1-0.5 0.4-1 1.1-0.5 0.5-0.2-0.9-0.4-0.9-0.5-0.7-0.6-0.2-0.3-0.1-0.7-0.4-0.3 0-0.3 0.3 0 0.3-0.1 0.3-0.2 0.4-0.6 0.5-0.8 0.3-0.9 0.1-0.7-0.1-0.7-0.3 0-0.5 0.6-1.8-2.1 0-0.7-0.4-1.2-0.8-0.6-0.2-1.1 0.6-2.5 0.6-1.1 0-0.5 0.1-0.1 0.3-0.2 0.4-0.3 0.3-1.2 0-0.3-1.6-0.1-1.5-0.8 0.3-0.2 0.7-0.2 0.9-0.4 0.7-0.7 0-0.7-0.1-0.6 0.3-0.5 0.5-0.4 0.6-1.3 1.4-0.1 0-1.7 0.6-3.5-0.3 0-0.1 0.2-1.3-0.1-0.7-0.3-0.4-1.4-0.6-0.5-1 0.1-1 0.4-0.9 1.5-2.4 1.2-1.1 1.2-0.8 0.6-0.5 0.4-0.7 0.1-1-0.3-0.8-0.6-0.6-0.8-0.3-0.8 0.1-0.7 0.3-0.7 0.2-0.5-0.4-0.1-0.9 0.1-2.3-0.3-0.9-0.4-0.5-1.2 0.9-0.8 0.3-0.7 0-0.3 0.1-0.3 0.2-1.1 1-0.6 0.3-6.3 1-0.7 0.3-1.4 1-0.8 0.3-1.4 0-0.8 0.2-0.6 0.5-0.4 0.6-0.4 1-0.3 0.6-0.9 0.5-1 0.3-0.9 0.5-0.5 0.3-0.4 0.9-0.6 0.9-0.8 0.6-0.8 0.2-0.7 0.4-0.6 0.8-0.7 0.6-0.6-0.2 0.1-0.8-0.8-10.6 0.1-0.9 0.4-0.4 1.6 0 0.8-0.2 0.3-0.5-0.2-0.5-0.8-0.3-0.1-0.4 0.2-0.2 1-0.5 0.1-0.3 0.1-0.5 0.2-0.5 0.4-0.2 0.2-0.2 0.8-0.9 2.1-1.7 0.5-0.2 0.2-0.1 1.3-1.2 0.7-0.3 0.9-0.6 0.2-0.3 0.2-0.4 0-1.7-0.1-0.4-0.1 0-0.4 0.1-0.6 0.6-0.4 1-0.6 1-1 0.4-0.8 0.2-2.2 1-0.4 0.5-0.5 0.1-2.1-0.2-0.8 0.3 0.2-0.7 0.4-1.2 0-0.8 0.3 0 0.5 0.9 0.3-0.4 0-1.8-0.1-0.4-0.1-0.3 0.2-0.1 0.5-0.1 1.5 0.3 0.2-0.1 0.3-0.7 1.5-1.8 0.7-0.7 1.3-0.9 0.6-0.5 0.3-0.8-0.4 0.2-0.3-0.1-0.4-0.1-0.4 0-0.1 0.1-0.1 0.1-0.9 0.5-1 0.8-0.5 0.4-0.9 0.2-1.3 0.1-1.3-0.2-1-0.6-0.3-0.6-0.2-1-0.3-0.6-0.5-0.3-1.4-0.2-0.3-0.2 0.3-0.6 0.7-0.4 0.9-0.4 0.6-0.1 0.5 0.1 0.3 0.5 0 0.5-0.5 0.4 0.3 0.2 0.6 0.2 0.6 0.1 0.4-0.1 0.1-0.6-0.1-0.7 0-0.5 0.5-0.5-0.5-1.9 0-0.9 0.1-0.8 0.4-0.7 0.5-0.4 0.5-0.2 0.5-0.7 1.5-3.3 0.3-1.3 0.6-1 2.9-1 1.5 0.4 0.2-0.1 0.1-0.1 0-0.2 0-0.4 0.3-0.3 0.6-0.4 3.1-0.6 1.2 0.7 0.6 0.1 0.5-0.1 0.9-0.7 1.2-1.8 1.6 0.5 0.4-0.2 0.3-0.4 0.1-0.6 0-0.6-0.2-1 0-0.3 0.1-0.4 0.3-0.1 0.3 0 0.2 0.1 0.3 0.4 0.2 0.4 0.2 0.4 0.4 0.1 1.1-0.8 0.4-0.1 1.3 0.4 0.4-0.1 0.2-0.2 0.5-0.7 0.7-0.3 5.1 1 0.6-0.1 1.4-0.7 1.4 0.4-0.7 2.6 0.1 0.7 1.9 2.3 0.8 0.6 1.3 0.4 0.5 0.5 0 0.8-0.8 1.1-0.1 0.6-0.1 1.8-1.5 3.1-1.1 0.5-1.1-0.2-0.3 0.1-0.8 1.4-0.3 0.2-1.9-0.6-3.3 0.2-1-1.3-1.7 1.8-1.4 0.5-2.2 2.2-1.5-0.1 0.1 0.4-0.2 2.9 0.4 1.1 0.6 1.2 0.1 0.3-0.1 1 0 0.3 1.3 2 0.4 0.3 0.6 0.2-0.6 2 0.1 0.6 0.2 0.6 0.9 1.1 0.5 0.2 2.8-0.7-0.6 1.9-0.1 2-1.6 1.1-1.2 0.6-0.1 0.2-0.2 0.4-0.2 1.3 0 0.6 0.1 0.5-0.3 2.8-0.6 3.9 0 1.4 0.2 0.7 0.3-0.2 0.8-0.1 1.1-0.1 0.4 0.1 0.3 0.1 0.3 0.3 0.3 0.3 0.2 0.3 0.2 0.3 0 0.4-0.1 0.3-0.5 0.7-0.2 0.4-0.1 0.7 0 0.6-0.1 0.5-0.1 1.1 0.1 0.5 0.2 0.2 1.4 0.3 0.5 0.1 0.3-0.1 0.2-0.2 0.5-0.7 0.3-0.5 0.8-0.7 0.3-0.1 0.8-0.1 0.3 0 0.3 0.2 0.1 0.4 0.2 0.7 0 0.5-0.2 0.8 0.1 0.3 0.5 0.7 0.3 0.4 0.1 0.5-0.1 0.4-0.1 0.3-0.2 0.7-0.1 1.2-0.1 0.3-0.1 0.4-0.1 0.3-0.5 0.6-0.1 0.4-0.3 0.3-0.2 0.4-0.4 0.6-0.1 0.3 0.1 0.3 0.3 0.3 0.3 0.3 0.6 0.4 0.3 0.2 1.5 2 0.9 0.9 0.6 0.5 0.3 0.4 0.6 0.4 0.7 0.1 0.3 0.2 0.6 1 1.2 1.4 0.4 0.6 0.5 0.6 0.2 0.2 0.4 0.3 0.5 0.5-1.9 1.1-2.6 0.3-1.1-1.4-0.6-0.4-0.6 0.6-0.1 0.5 0 1.1-0.1 0.5-0.2 0.4-0.7 0.7-1.6 0.8-2.7 0-3-0.9-0.8 0.2-0.3 1.2-0.3 2 0.1 0.3 0.2 0.7 0.1 0.3-0.1 0.5-0.9 1.7-1.1 1.2-0.5 0.5-1.4 0.2-1-0.6-1.9-2-1-0.3-1 0.3-1.9 1.1 0.2 0.1 1.2 2 0 0.5-0.5 1.1-0.4 0.6-0.6 0.2-1.2 0-1.8 1-3.2-2.8-1.7-0.5-0.7 1.4-1.2 0.8-2.7 1-0.7-1.3-1.8 2.3-0.7 0.1-0.2-0.1-0.1-0.2-0.4-3.1-2.8 2.3-2.1 2.7-1-1.4-0.3 0-0.9 0-0.3-0.1-0.3-0.3-0.8-1.2-0.7-0.5-1.8 0-0.7-0.9-0.2-0.7-0.1-2.8-2.1 1.1-6.4-0.6-0.3 0.3-0.4 0.7-0.4 0.1-0.4-0.1-0.2-0.2-0.1-0.2-0.1-0.2-0.1-0.5-0.1-0.2-0.2-0.1-3-0.9-0.8 1.1-3.6-0.6-0.4-0.5-0.9-2.1 1.6-2 0.4-1.3-0.3-1.4-0.9-0.6-0.7-1.9-0.7-0.5-0.7-0.1-1.6 0.3-0.6 0-6.5-2.8-0.7 1.2 1.2 0.7 0.3 0.3 0.2 0.3 0.1 0.4 0 0.4-0.8 2.8-0.2 0.3-0.3 0.2-0.8-0.3-0.2-1 0.2-2.4-0.9-0.1-0.9 0.2-1.7 1-0.1 0.1-0.3 0.6 0 0.2 0.1 0.4 0.4 0.5 0.1 0.4-0.1 0.2-1.9 2.5-1.9-0.2-2-2.5-0.7-0.6-0.3-0.6-0.2-1.1 0-1.2 0.2-0.7 0.3-0.8 0.2-1.2 0-1.1-0.3-0.5-1.7-0.5-0.8-0.4-0.7-0.5-0.3-1.1-0.4-0.5-1.4-0.7-0.6-0.6-1.2-1.6-0.8-0.7-1.3-3.7-0.3-0.7 0-0.1 8.7 0.4 0.5-0.2 0.7-0.3 0.7-0.1 1.7 0 0.6-0.2 0.9 0.6 1.3 0 5.9-0.7 0.6-0.3 0.5-1.1-0.1-0.4-0.1-0.3 0-0.5 0.2-0.5 0.5-0.9 0.2-0.5-0.1-0.4-0.2-0.5 0-0.6 0.3-0.7 0.3-0.3 0.9-0.3 0.4-0.3 1-1.5 0.1-0.5 0.1-0.9 0-0.5 0-0.2-0.1-0.6 0-0.2 0.1-0.3 0.4-0.3 0.1-0.2 0.3-1.3 0.1-0.5-0.1-0.5 0.2-0.6 0.7-1.2-1.6-2.9-0.9-1.1-0.5-0.9-0.5-0.4-0.4-0.2-1.1-0.1-0.5-0.2-0.4-0.7-0.3-1.8-0.4-0.8 0.4-0.6 0.4-1.2 0.3-0.5 0.8-0.3 1.7-1.2 0.5 0 0.3-0.1 0.8 0.1 0.8-0.1 0.7-0.5 0.1-0.3 0-0.4 1.5 0.7 0.7 0 0.7-0.2 0.6-0.2 0.5-0.4 0.5-0.4 0.4-0.7 0.2-0.8 0.3 0 0.8 0.6 1 0 1.1-0.5 0.7-0.5-0.9 0.1-0.4-0.4-0.6-1.2-0.2 0-0.5-0.3-0.3-0.3 0.3-0.2 0.4 0 1.6-0.7 1.7-1.2 1.3-0.3 0.3-0.4 0.3-0.3 0.4-0.1 0.6 0.3 1.2 1.3 0.7 0.3 0.8 0.1 1.5 0.5 0.8 0.1 1.1-0.4 1.4-0.8 1.5-0.5 1.4 0.6 2.1-1 0.4-0.3 0.1-0.5 0.3-0.5 0.4-0.3 0.9-0.2 0.1-0.2 0.1-0.2 0.3-0.2 2.2-0.6 0.1 0.7 0.4 0.6 0.9 0.8 0.5-0.7 0.1-0.5-0.1-1.3 0.4-0.7 0.8 0.1 1.2 0.8 0.6 0.2 0.2 0.5 0.2 0.6 0.3 0.6 0.9 0.9 0.4 0.6 0.3 0.8 0.3-0.9 0-0.8-0.3-1.7 0-0.9 0.2-0.5 0.4-0.4 0.8-0.5-0.8-0.4-0.7-0.1-1.4 0.1-0.7-0.2-1-1.1-0.7-0.2 0.8-0.6 4.1-0.6 0.3-0.1 0.2-0.2 0.2-0.4 0-0.4-0.2-0.1-1 0.5-2.4 0.4 0.1-0.2 0.1-0.1 0.3-0.1-0.1-0.2-0.4-0.2-0.5 0.7-0.8 0.3-1.8 0.1 0.3-0.8 0.2-1.2 0.2-0.8 0.4 0.2 0.6-0.8-0.4-0.3-0.3-0.4-0.2-0.6 0-0.6 0.2 0 0.7 0.1 0.3-0.1 0.9 0.1 1.2-0.6 5.9-4.5 0.1 0.6 0.4 0.4 0.4 0 0.5-0.2-0.4 0-0.2 0 0-0.4 0.2-0.1 0.2-0.2 0.2-0.1-0.8-0.6-0.1-0.6 0.2-0.6 0.1-0.7 0.3-0.4 0.6-0.2 1.3 0 1.2-0.3 1.2-0.7 1-0.9 0.8-1.1 1.1 0.1 0.5 0.8 0.3 1 0.6 0.8 0 0.3-0.3-0.1-0.4-0.1-0.2-0.1-0.3 0.5-0.1 0.5-0.1 0.4 0.3 0.4-0.4 0.4-0.2-0.1-0.3-0.3-0.2 0.3-0.1 0.1-0.2 0.1 0 0.3 2 0.2 0.4-0.5-0.8-1.2 0.5-0.3 0.5 0 1 0.3-0.1-0.2-0.1-0.4-0.1-0.2 0.6-0.6 0.7-0.6 0.8-0.5 1.6-0.4 0.9-0.6 0.7-0.8 0.2-0.9 0.2-0.1 0.3 0.1 0.3 0.4 0.1 0.6-0.2 0.4-0.9 1.1-0.1 0.8-0.5 3.2 0.8 1.2-1.4 1.5-0.2 0.6 0.2 1-0.1 0.6-0.1 0.3-1 1-0.2 0.5 0 0.5 0.5 0.8 0.1 0.3-0.1 0.2-1.3 4.1-1.1 0.6-0.4 1.3-0.3 0.4-0.5 0.3-1.9-0.3-0.3 3.7-0.2 0.6-1.5 1.7-0.2 0.3 0 0.5 0.1 0.4 0.2 0.4 0.1 0.3 0 0.5-1.4 3.7 1.5 5.4-0.1 0.4-0.2 0.4-0.1 0.7 0 0.7 1.2 3.5-0.1 1.5-0.2 1.4-0.9 1.8-0.4 0.3-0.9 0.5-0.3 0.3-1 1.9z" id="ESMD" name="Comunidad de Madrid">
  </path>
  <path d="M563.3 458.9l0.1-0.1 0-0.1 0-0.1 0-0.1 0-0.1 0-0.1 0.1-0.2 0-0.1-0.1 0-0.1 0 0-0.1 0-0.1-0.1 0 0 0.1-0.1 0-0.2-0.1-0.1-0.2-0.1 0-0.1 0-0.1 0 0-0.1-0.1 0-0.1 0 0-0.1 0-0.1-0.1-0.3 0-0.1 0-0.1-0.1-0.2 0.1 0-0.1 0 0-0.2 0-0.1 0-0.1 0-0.1-0.1 0 0-0.1-0.1 0 0-0.1 0 0.1-0.1 0-0.3 0.1-0.2-0.8 0.5-0.1 0.8 0.2 0.8 0.5 0.7 0.5 0.7 0.1 1.1-0.5-0.3 1.1-1.8 1.3-0.2 0.8-0.3-0.3z" id="ESCE" name="Ceuta">
  </path>
  <path d="M661.6 487.6l0-0.1 0-0.1 0-0.1-0.1-0.1 0-0.1 0 0.1 0 0.1 0.1 0 0 0.1 0 0.1-0.1-0.1-0.1 0 0.1 0.2-0.1 0-0.1-0.1 0 0.1 0.1 0-0.3 0.1-0.6 0.2-0.6-0.6-0.3-0.2 0-0.2 0-0.8 0.1-0.4 0.2-0.2 0.2-0.1-0.1-0.1 0.1 0 0-0.1-0.1 0 0 0.1 0-0.1 0.1-0.2 0.2-0.1 1.4 2.7-0.1 0z" id="ESML" name="Melilla">
  </path>
 </g>
 <g id="points">
  <circle class="34.91028065897241|-5.789853480226222" cx="545.5" cy="505.6" id="1">
  </circle>
  <circle class="42.98588283276368|3.2118717766549025" cx="909.1" cy="85.3" id="2">
  </circle>
 </g>
 <g id="label_points">
  <circle class="Navarra" cx="712.4" cy="102.8" id="ESNC">
  </circle>
  <circle class="País Vasco" cx="674.1" cy="79.7" id="ESPV">
  </circle>
  <circle class="La Rioja" cx="678.5" cy="122.1" id="ESLO">
  </circle>
  <circle class="Cataluña" cx="841.2" cy="149.6" id="ESCT">
  </circle>
  <circle class="Aragón" cx="753.6" cy="165.5" id="ESAR">
  </circle>
  <circle class="Extremadura" cx="531.5" cy="288.2" id="ESEX">
  </circle>
  <circle class="Galicia" cx="464.1" cy="99.5" id="ESGA">
  </circle>
  <circle class="Castilla y León" cx="578.4" cy="151" id="ESCL">
  </circle>
  <circle class="Comunidad Valenciana" cx="750.1" cy="282.8" id="ESVC">
  </circle>
  <circle class="Murcia" cx="718.9" cy="353.6" id="ESMC">
  </circle>
  <circle class="Andalucía" cx="584.7" cy="373.3" id="ESAN">
  </circle>
  <circle class="Asturias" cx="542.7" cy="67.1" id="ESAS">
  </circle>
  <circle class="Cantabria" cx="613.5" cy="74.3" id="ESCB">
  </circle>
  <circle class="Islas Baleares" cx="899.3" cy="266.8" id="ESIB">
  </circle>
  <circle class="Castilla la Mancha" cx="679.3" cy="277.2" id="ESCM">
  </circle>
  <circle class="Comunidad de Madrid" cx="627.2" cy="219.2" id="ESMD">
  </circle>
  <circle class="Ceuta" cx="563.3" cy="456.9" id="ESCE">
  </circle>
  <circle class="Melilla" cx="660.4" cy="486.7" id="ESML">
  </circle>
 </g>
</svg>
